<?xml version="1.0" encoding="UTF-8"?>
<svg id="Layer_2" data-name="Layer 2" xmlns="http://www.w3.org/2000/svg" viewBox="0 0 134.72 142.29">
  <defs>
    <style>
      .cls-1 {
        stroke: #000;
      }

      .cls-1, .cls-2 {
        stroke-miterlimit: 10;
      }

      .cls-2 {
        fill: #ed2024;
        stroke: #231f20;
        stroke-width: .5px;
      }
    </style>
  </defs>
  <g id="Layer_1-2" data-name="Layer 1">
    <g>
      <path class="cls-2" d="m49.92,118.24c-1.09.12-1.58-.86-1.43-1.79.07-.41.43-.6.8-.73.6-.21,1.21-.39,1.8-.64,1.9-.8,3.63-1.88,5.21-3.21,2.03-1.7,3.65-3.74,4.84-6.1.65-1.29,1.13-2.66,1.43-4.07.39-1.81.41-3.64.3-5.49-.07-1.22-.32-2.41-.53-3.61-.34-1.87-.96-3.66-1.74-5.38-.95-2.08-2.18-3.98-3.66-5.72-.63-.73-1.26-1.46-1.96-2.12-1.52-1.43-3.08-2.8-4.77-4.01-1.82-1.31-3.63-2.62-5.49-3.86-1.79-1.2-3.63-2.31-5.44-3.46-3-1.89-5.96-3.83-8.88-5.85-2.51-1.73-5.06-3.4-7.57-5.12-2.53-1.73-5.02-3.51-7.41-5.43-1.04-.84-2.05-1.73-3.05-2.62-.9-.8-1.79-1.61-2.63-2.47-2.04-2.08-3.9-4.31-5.44-6.8-1.04-1.67-1.91-3.43-2.59-5.27-.5-1.35-.85-2.75-1.13-4.17-.31-1.57-.36-3.15-.29-4.72.08-1.68.34-3.36.84-4.97.37-1.18.78-2.34,1.32-3.46.77-1.6,1.67-3.13,2.71-4.56.83-1.14,1.73-2.22,2.72-3.24,1.36-1.4,2.83-2.66,4.45-3.75,1.98-1.34,4.1-2.4,6.33-3.22,1.25-.46,2.55-.81,3.85-1.14,1.21-.3,2.45-.53,3.68-.75.52-.09,1.06-.11,1.59-.12.91,0,1.52.78,1.27,1.65-.07.23-.26.46-.46.59-.41.28-.86.5-1.3.74-1.75.99-3.5,1.99-5.07,3.27-1.68,1.36-3.03,2.98-4,4.93-.63,1.27-1.14,2.59-1.5,3.95-.37,1.4-.64,2.81-.59,4.28.04,1.19-.09,2.38.15,3.55.19.92.36,1.86.63,2.76.37,1.27.85,2.51,1.5,3.67.72,1.3,1.55,2.52,2.51,3.65,1.51,1.79,3.35,3.21,5.18,4.64,2.74,2.16,5.57,4.22,8.49,6.14,2.36,1.55,4.72,3.1,7.09,4.62,2.87,1.84,5.75,3.65,8.62,5.49,1.67,1.07,3.32,2.15,4.97,3.25,2.46,1.65,4.87,3.36,7.16,5.24,1.16.95,2.26,1.95,3.38,2.96.69.62,1.37,1.26,2.01,1.93,2.12,2.24,4.09,4.6,5.76,7.2.99,1.56,1.85,3.18,2.56,4.88.51,1.24.91,2.52,1.24,3.82.29,1.14.47,2.29.55,3.45.06.98.15,1.95.16,2.93.01.91,0,1.83-.1,2.73-.16,1.36-.37,2.72-.66,4.07-.54,2.52-1.44,4.9-2.7,7.15-.84,1.49-1.8,2.89-2.91,4.19-1.37,1.6-2.95,2.97-4.68,4.19-1.76,1.24-3.66,2.2-5.64,2.99-1.05.42-2.14.74-3.24,1.03-.99.27-2.01.44-3.01.67-.8.19-1.6.4-2.4.6-.75.19-1.5.38-2.25.56-.18.04-.38.03-.56.05Z"/>
      <path class="cls-2" d="m89.58.94c.21-.02.32-.04.43-.04.38,0,.76,0,1.14,0,2.03-.03,4.06-.07,6.09-.08,1.03,0,2.06.02,3.09.1,1.2.09,2.39.24,3.58.41,1.46.21,2.93.41,4.37.71,1.46.31,2.9.71,4.33,1.13,1.15.34,2.29.73,3.41,1.17,3.1,1.22,6.02,2.79,8.68,4.8,2.76,2.09,4.93,4.67,6.49,7.77.62,1.23,1.16,2.5,1.58,3.81.51,1.59.85,3.22,1.13,4.86.22,1.29.3,2.59.42,3.89.19,2.13.15,4.26.13,6.4-.01,1.1-.08,2.19-.26,3.28-.14.86-.22,1.74-.41,2.59-.24,1.09-.54,2.17-.88,3.23-.32,1-.67,1.99-1.09,2.95-.42.96-.92,1.89-1.42,2.81-.78,1.43-1.72,2.74-2.76,3.98-1.27,1.51-2.73,2.81-4.34,3.95-1.1.78-2.28,1.42-3.49,2-1.7.8-3.48,1.4-5.32,1.78-1.21.26-2.42.49-3.64.67-.95.14-1.92.16-2.87.25-1.06.11-2.11.25-3.17.36-.48.05-.96.08-1.43.13-1.26.13-2.52.26-3.79.39-.68.07-1.36.19-2.05.23-.79.04-1.58,0-2.35,0-.22-.56-.15-.7.34-.83,1.85-.51,3.71-1.02,5.56-1.54.78-.22,1.56-.42,2.32-.7,1.47-.54,2.92-1.11,4.37-1.68,1.18-.46,2.28-1.06,3.31-1.79.46-.33.87-.72,1.28-1.12.44-.43.85-.9,1.28-1.35,1.77-1.81,3.46-3.69,4.87-5.8.99-1.48,1.81-3.04,2.37-4.74.35-1.06.67-2.13.89-3.23.13-.67.19-1.36.28-2.04.06-.49.13-.99.18-1.48.06-.63.13-1.26.14-1.9.02-1.17.02-2.34,0-3.51-.01-.93-.03-1.86-.08-2.78-.05-.77-.16-1.53-.23-2.3-.07-.86-.11-1.71-.17-2.57-.03-.38-.05-.75-.1-1.13-.12-.94-.3-1.86-.67-2.74-.84-2.02-1.98-3.86-3.38-5.53-.77-.92-1.57-1.83-2.43-2.67-1.51-1.48-3.15-2.82-4.9-4.03-1.5-1.04-3.06-1.99-4.68-2.82-1.05-.54-2.14-1.03-3.25-1.44-1.25-.47-2.54-.87-3.83-1.21-.94-.25-1.91-.37-2.89-.47-2.08-.21-4.12-.61-5.88-1.84-.09-.06-.16-.14-.32-.28Z"/>
      <path class="cls-1" d="m52.34,1.82c.3-.79.95-1.24,1.76-1.24,3.12,0,6.24,0,9.35,0,2.98,0,5.96,0,8.94,0,1.15,0,2.3-.09,3.45-.07.83.02,1.63.23,2.23.9.42.47.61,1.03.72,1.63.18.95.16,1.92.16,2.88,0,20.31,0,40.62,0,60.93,0,.55.06,1.1.07,1.65,0,.24-.04.48-.08.71-.09.5-.48.69-.91.8-.35.08-.72-.11-.93-.5-1.01-1.92-2.44-3.53-3.83-5.17-.88-1.03-1.82-2.01-2.75-3-1.73-1.84-3.63-3.51-5.58-5.13-1.01-.83-1.71-1.89-2-3.18-.11-.5-.15-1.02-.15-1.53,0-10.53,0-21.05-.01-31.58,0-1.08-.11-2.16-.16-3.24-.03-.55-.05-1.1-.08-1.65-.07-1.39-.18-2.78-.43-4.14-.14-.78-.28-1.56-.5-2.31-.57-1.9-1.63-3.43-3.41-4.41-1.15-.63-2.36-1.12-3.59-1.54-.75-.26-1.49-.53-2.26-.81Zm25.23-.4c-.29-.34-.67-.48-1.11-.54-.04.22.01.48-.28.42-.36-.07-.18-.36-.15-.6-.2,0-.37,0-.54,0-.84.03-1.68.09-2.52.09-6.2,0-12.4,0-18.6,0-.2,0-.4.01-.55.02-.08.2-.12.34-.17.47-.13-.05-.26-.11-.4-.17-.08.08-.18.15-.26.24-.09.1-.16.2-.24.3,1.08.38,2.12.74,3.18,1.12-.04-.2-.2-.39.06-.45.1-.03.29.04.35.12.14.21-.06.3-.3.38.57.25,1.07.46,1.57.68.28.12.55.26.82.39.1.06.2.12.29.18.83.64,1.65,1.28,2.19,2.2.23-.17.45-.27.58-.02.16.32-.24.28-.36.41.15.3.29.58.42.85.23-.1.48-.23.59.07.14.36-.25.24-.42.35.18.69.36,1.36.53,2.03.21.08.53-.06.53.29,0,.32-.3.15-.4.18.2,2.22.39,4.4.58,6.59.11.03.25.03.36.09.07.04.15.17.13.24-.01.07-.13.14-.22.16-.09.02-.19-.02-.32-.03,0,.2,0,.37,0,.54.03.58.09,1.16.09,1.75,0,10.47,0,20.95,0,31.42,0,.43.01.86.08,1.28.07.41.21.82.33,1.24.28-.05.5-.14.64.13.15.3-.21.29-.28.48.71,1.29,1.93,2.05,2.99,3.01.07-.38.14-.47.3-.4.49.22.12.39-.08.57.13.11.24.2.29.24.18-.09.3-.18.43-.2.07,0,.22.12.21.16-.03.14-.12.27-.2.44.04.04.13.11.22.2.15-.18.32-.28.5-.15.18.13.19.31.02.49-.03.03.08.18.13.28.24-.15.45-.26.63,0,.15.21-.09.27-.22.46.14.03.27.11.36.07.21-.09.36-.09.48.12.13.21-.11.26-.27.44.22.05.35.12.47.11.44-.06.47-.03.39.4-.02.08.03.18.05.28.23-.02.48-.24.61.04.06.11-.04.3-.07.5.07.11.17.2.38.07.07-.05.29,0,.31.04.04.1,0,.24-.03.36,0,.04-.05.07-.12.18.17.03.3.09.39.05.21-.09.37-.08.47.13.14.28-.18.24-.31.36.15.13.27.24.32.28.21-.06.38-.17.47-.12.41.23.07.39-.12.55.13.12.22.21.25.24.22-.08.37-.15.53-.17.05,0,.16.14.17.22.03.28-.26.17-.44.32.19.16.37.31.55.46l-.02-.02c.03.08.05.17.1.23.38.46.76.92,1.07,1.29.28.08.51.08.63.2.06.06-.05.31-.1.51.03.04.08.1.13.17.22-.15.4-.34.61-.11.04.04.06.16.03.19-.11.1-.24.18-.35.27.36.5.71.99,1.08,1.5.17-.15.37-.24.52.01.17.3-.15.35-.32.47.09.16.14.33.25.42.14.11.34.23.49.2.34-.07.65-.26.73-.64.06-.3.07-.61.08-.92,0-.33-.05-.65-.05-.98,0-20.78,0-41.56,0-62.33,0-.57-.11-1.15-.16-1.73-.18.05-.32.14-.42.12-.1-.03-.17-.18-.25-.28.09-.06.17-.14.26-.17.08-.02.18.03.33.06-.2-.46-.26-.94-.69-1.21-.07-.07-.13-.14-.2-.2Z"/>
      <path class="cls-1" d="m93.24,139.94c0,.13.02.22.02.3,0,1.08-.5,1.36-1.43,1.54-.12.02-.24,0-.36,0-13.55,0-27.11,0-40.66,0-.26,0-.52-.02-.76-.08-.51-.13-.76-.48-.77-1.02-.01-.56.2-.9.71-1.06.24-.07.51-.11.76-.1,1.41.03,2.69-.39,3.82-1.2.93-.66,1.69-1.51,2.35-2.45.76-1.07,1.36-2.24,1.73-3.5.27-.92.4-1.88.61-2.82.16-.71.11-1.44.15-2.16.07-1.06.19-2.11.65-3.11.57-1.25,1.51-2.13,2.71-2.73.73-.37,1.53-.62,2.29-.94,1.55-.64,3.03-1.4,4.4-2.37,1.26-.9,2.5-1.83,3.74-2.76.41-.31.77-.68,1.16-1.02.22-.19.43-.4.67-.56.68-.46,1.57-.12,1.74.68.07.34.05.71.06,1.07,0,.81,0,1.62,0,2.43,0,.26.05.51.05.77,0,1.17,0,2.34,0,3.51,0,.79.02,1.58.1,2.37.11,1.04.27,2.08.43,3.11.23,1.48.61,2.93,1.11,4.33.59,1.65,1.4,3.18,2.72,4.39.91.84,1.95,1.46,3.13,1.84.74.23,1.48.48,2.23.63.79.16,1.6.2,2.4.3.49.06.99.11,1.48.17.6.07,1.19.15,1.79.24.32.05.64.13,1,.2Zm-18.68-25.21c-.26.22-.56.42-.77.68-.27.32-.79.41-.81.94-.2.03-.43-.1-.52.14-.06.16-.09.32-.15.55-.28-.17-.53-.15-.73.11.05.16.4.3.09.48-.25.15-.27-.16-.36-.29-.15.11-.3.23-.45.33-.21.14-.32.34-.45.55-.1.16-.47.15-.62.18-.02.25-.04.39-.05.53-.12-.06-.24-.11-.42-.19-.13.08-.34.18-.5.32-.15.13-.26.32-.4.49-.49-.08-.86.11-1.24.63-.6-.08-1.02.19-1.31.7-.11-.03-.19-.06-.27-.07-.27-.04-.87.19-.89.38-.02.15-.01.3-.18.29-.11,0-.21-.13-.36-.23-.34.16-.7.33-1.07.5-.03.02-.06.04-.09.06-.33.18-.65.37-.93.53.01.16.06.28.02.34-.05.06-.2.11-.26.07-.25-.15-.33.06-.47.19,0,.15.31.28.1.43-.1.07-.3.01-.52.01-.05.18-.1.38-.16.63-.43.04-.47.48-.62.8-.16.34-.35.72.11,1.07-.19.07-.31.12-.47.18-.06.48-.18.97-.16,1.46.05,1.32-.22,2.59-.42,3.82.12.11.31.21.3.29-.03.27-.29.02-.41.13-.14.5-.28.99-.41,1.44.08.14.23.27.21.38-.04.28-.32.06-.45.15-.2.39-.49.74-.2,1.22h-.41c-.18.3-.36.59-.53.89.1.12.41.1.27.34-.14.24-.31,0-.39-.03-.54.16-.05.54-.26.76-.55.02-.61.07-.66.61-.04.01-.09.04-.14.04-.37.02-.42.05-.42.42,0,.21-.09.28-.28.25-.29-.05-.4.09-.41.37,0,.08-.03.16-.06.29-.28-.18-.5-.1-.76.01-.28.12-.47.28-.56.62-.31-.24-.57-.14-.84-.02-.17.08-.36.11-.55.13-.56.06-1.12.1-1.64.15-.08.12-.16.24-.23.35-.1-.08-.2-.15-.32-.24-.04.03-.09.07-.15.1-.3.15-.41.4-.39.72.02.32.19.56.5.66.27.08.57.15.85.15,13.49,0,26.98,0,40.46,0,.29,0,.58-.05.86-.13.55-.16.81-.61.74-1.26-.63-.1-1.27-.21-1.91-.3-.15-.02-.31-.06-.44.15-.19.29-.42.23-.53-.1-.03-.07-.04-.15-.07-.24-1.54.01-3.02-.24-4.41-.53-.12.16-.18.31-.29.36-.07.03-.27-.04-.3-.12-.05-.12,0-.27,0-.42-.44-.14-.92-.3-1.33-.44-.15.15-.25.28-.38.36-.04.03-.24-.08-.24-.12,0-.14.06-.28.11-.45-.27-.16-.58-.34-.86-.5-.09.17-.14.4-.26.44-.19.07-.3-.1-.32-.32.09-.08.19-.16.3-.25-.18-.13-.29-.24-.55-.12-.3.14-.43-.05-.33-.4.02-.06,0-.12-.01-.21-.09,0-.15,0-.21,0-.42.04-.41.04-.4-.42,0-.09-.1-.19-.18-.26-.03-.03-.13.05-.19.03-.13-.05-.31-.09-.37-.19-.1-.15.07-.23.19-.3.01,0,0-.05.01-.09-.05-.06-.11-.12-.16-.18-.48.25-.51.24-.68-.22.15-.05.29-.1.4-.14-.29-.59-.58-1.16-.85-1.73-.58-1.23-.92-2.54-1.25-3.85-.09-.37-.22-.72-.27-1.1-.13-.97-.25-1.94-.34-2.91-.09-1.02-.16-2.05-.21-3.08-.03-.6,0-1.21,0-1.81,0-.71,0-1.41,0-2.12,0-1.06-.02-2.13-.02-3.19,0-.54-.09-1.05-.69-1.31-.02,0-.05,0-.07.01-.01.1-.02.2-.04.38-.23-.07-.43-.12-.71-.21-.13.13-.33.32-.52.5h.01Z"/>
      <path class="cls-1" d="m2.04,79.03c.68.36,1.15.85,1.38,1.52.13.39.22.8.24,1.21.05,1.01.17,2.01.34,3.01.25,1.46.53,2.9.76,4.36.23,1.46.58,2.89.95,4.32.53,2.08,1.2,4.11,2.05,6.09.72,1.68,1.52,3.32,2.49,4.86.97,1.54,2.01,3.05,3.08,4.52.39.53.92.98,1.43,1.41,1.04.87,2.1,1.72,3.19,2.53,1.19.88,2.51,1.55,3.87,2.14,1.2.52,2.44.94,3.72,1.18,1.38.26,2.77.5,4.15.71.97.15,1.81.52,2.48,1.24.08.08.13.19.24.36-.21,0-.36.03-.5.02-.15-.01-.3-.07-.46-.08-1.01-.05-2.02-.08-3.04-.13-.55-.03-1.09-.1-1.64-.15-.05,0-.1-.02-.15-.02-1.05-.05-2.09-.09-3.14-.15-.56-.03-1.13-.1-1.69-.15-.14-.01-.27-.02-.41-.03-1.34-.07-2.67-.15-4.01-.22-.63-.03-1.27-.03-1.9-.1-.73-.08-1.46-.2-2.18-.35-1.01-.21-2.02-.41-3-.7-2.13-.63-4.15-1.49-5.73-3.12-.88-.9-1.51-1.95-2-3.1-.63-1.48-.94-3.04-1.18-4.63-.18-1.19-.21-2.39-.24-3.6-.18-6.92-.02-13.84-.08-20.76,0-.61.17-1.15.48-1.66.12-.2.31-.35.48-.55Zm3.7,34.87s.09.05.13.08c.36.25.7.55,1.09.75.77.4,1.55.78,2.35,1.11.47.2.98.28,1.47.43.54.16,1.06.37,1.64.36,0,0-.01,0-.01,0,.14.05.27.13.41.16.35.07.72.09,1.06.19.71.21,1.43.29,2.17.32.94.04,1.88.09,2.83.14.85.05,1.71.12,2.56.17.98.05,1.95.09,2.93.14.07,0,.13.03.2.04.5.06,1.01.11,1.5.16.05-.25.09-.43.14-.64.59,0,1.16,0,1.72,0,.57,0,.57,0,.54.59,0,.04.01.09.02.12.53.05,1.06.03,1.55.16.55.16.72-.22,1.04-.52-.28-.14-.52-.26-.68-.34-.18.16-.28.34-.41.35-.3.04-.28-.28-.39-.48-.63-.1-1.27-.2-1.91-.3-.65-.1-1.3-.21-1.95-.32-.07.39-.13.45-.31.42-.22-.04-.26-.12-.2-.54-.44-.13-.88-.26-1.35-.4-.05.24-.2.41-.43.29-.12-.06-.16-.28-.29-.51-.33-.12-.78-.28-1.22-.44-.1.16-.15.39-.41.29-.28-.11-.16-.32-.09-.54-.25-.11-.5-.22-.74-.32-.14.18-.25.35-.48.23-.25-.13-.15-.33-.07-.54-.28-.13-.53-.24-.78-.35-.1.26-.28.3-.47.19-.25-.14-.06-.35-.01-.58-.34-.15-.66-.3-.98-.44h.01c-.07-.26-.3-.31-.51-.42-.1.22-.24.34-.44.2-.24-.17-.05-.35.05-.49-.51-.42-.99-.82-1.48-1.22-.24-.19-.49-.35-.74-.53,0,0-.03-.03-.03-.03-.21-.22-.43-.45-.64-.67h.01c-.18-.16-.35-.34-.53-.52-.26.3-.42.34-.56.17-.2-.24.05-.33.21-.46-.13-.16-.25-.31-.37-.45-.01-.02-.03-.05-.04-.07-.39-.57-.77-1.15-1.22-1.68-.35.3-.4.29-.57-.15.12-.06.24-.11.38-.18-.38-.59-.75-1.16-1.12-1.73-.04-.05-.08-.1-.12-.15-.31-.54-.64-1.06-.91-1.61-.89-1.77-1.83-3.51-2.44-5.41-.33-1.02-.74-2.02-1.05-3.05-.31-1.03-.54-2.08-.77-3.13-.19-.85-.33-1.71-.49-2.57-.24-1.36-.47-2.73-.71-4.09-.19-1.06-.3-2.13-.37-3.21-.06-.99-.35-1.89-1.32-2.46-.09.1-.23.2-.29.32-.27.52-.5,1.04-.5,1.65.01,6.44,0,12.89,0,19.33,0,.12,0,.24,0,.36.1,1.28.06,2.57.26,3.84.11.69.21,1.38.29,1.97.24.14.46.19.51.31.12.27-.25.26-.35.45.14.45.27.89.41,1.36.26-.08.51-.17.59.15.09.35-.31.16-.44.38.34.69.7,1.41,1.06,2.12.43-.17.64-.15.7.07.08.3-.23.22-.38.35.15.15.29.3.43.44l-.02-.02c.09.14.16.3.28.41.35.33.72.63,1.08.95Z"/>
    </g>
  </g>
</svg>